<?xml version="1.0" encoding="UTF-8"?>
<svg id="Capa_1" xmlns="http://www.w3.org/2000/svg" version="1.1" viewBox="0 0 63.26 63.25">
  <!-- Generator: Adobe Illustrator 29.6.0, SVG Export Plug-In . SVG Version: 2.1.1 Build 207)  -->
  <defs>
    <style>
      .st0 {
        fill: #fff;
      }
    </style>
  </defs>
  <path class="st0" d="M59.64,29.62h-8.04l-.3-1.64c-.51-2.78-1.59-5.36-3.19-7.69l-.95-1.37,5.69-5.69c.38-.38.59-.88.59-1.41s-.21-1.04-.59-1.41c-.71-.71-2.12-.71-2.83,0l-5.69,5.69-1.37-.95c-2.33-1.61-4.91-2.68-7.69-3.19l-1.64-.3V3.62c0-1.1-.9-2-2-2s-2,.9-2,2v8.04l-1.64.3c-2.78.51-5.36,1.59-7.69,3.19l-1.37.95-5.69-5.69c-.74-.74-2.09-.74-2.83,0-.38.38-.59.88-.59,1.41s.21,1.04.59,1.41l5.69,5.69-.95,1.37c-1.61,2.33-2.68,4.91-3.19,7.69l-.3,1.64H3.62c-1.1,0-2,.9-2,2s.9,2,2,2h8.04l.3,1.64c.51,2.77,1.59,5.36,3.19,7.69l.95,1.37-5.69,5.69c-.38.38-.59.88-.59,1.41s.21,1.04.59,1.41c.74.74,2.09.74,2.83,0l5.69-5.69,1.37.95c2.33,1.61,4.91,2.68,7.69,3.19l1.64.3v8.04c0,1.1.9,2,2,2s2-.9,2-2v-8.04l1.64-.3c2.78-.51,5.36-1.59,7.69-3.19l1.37-.95,5.69,5.69c.71.71,2.12.71,2.83,0,.38-.38.59-.88.59-1.41s-.21-1.04-.59-1.41l-5.69-5.69.95-1.37c1.61-2.33,2.68-4.91,3.19-7.69l.3-1.64h8.04c1.1,0,2-.9,2-2s-.9-2-2-2ZM31.64,47.62v-10.06h-2.88v2.98l-10.36-5.98,10.36-5.98v2.98h5.52v3.06l10.29-5.94-10.36-5.98v2.98h-2.57v-10.07c8.82,0,16,7.18,16,16s-7.18,16-16,16Z"/>
</svg>